<?xml version="1.0" standalone="no"?>
<!DOCTYPE svg PUBLIC "-//W3C//DTD SVG 20010904//EN"
 "http://www.w3.org/TR/2001/REC-SVG-20010904/DTD/svg10.dtd">
<svg version="1.0" xmlns="http://www.w3.org/2000/svg"
 width="1280.000000pt" height="896.000000pt" viewBox="0 0 1280.000000 896.000000"
 preserveAspectRatio="xMidYMid meet">
<g transform="translate(0.000000,896.000000) scale(0.100000,-0.100000)"
fill="#000000" stroke="none">
<path d="M6195 8950 c-16 -5 -59 -16 -94 -25 -36 -10 -137 -48 -225 -85 -89
-38 -204 -81 -256 -95 -52 -15 -122 -35 -155 -47 -89 -30 -485 -235 -524 -272
-18 -17 -98 -112 -177 -211 -98 -122 -150 -196 -164 -232 -29 -78 -94 -487
-129 -818 -6 -55 -18 -163 -27 -240 -21 -191 -14 -245 76 -572 47 -172 51
-220 18 -228 -157 -34 -209 -49 -219 -61 -28 -34 5 -657 46 -866 22 -109 86
-290 161 -453 116 -251 145 -289 303 -400 132 -92 134 -96 180 -331 32 -162
59 -250 115 -384 19 -47 43 -114 51 -149 19 -74 11 -104 -40 -156 -95 -94
-732 -592 -809 -632 -46 -23 -302 -174 -366 -215 -30 -20 -113 -57 -185 -83
-71 -26 -168 -63 -215 -82 -47 -19 -129 -52 -182 -74 -53 -22 -152 -52 -220
-68 -68 -16 -271 -72 -453 -124 -472 -138 -523 -153 -595 -182 -36 -14 -119
-41 -185 -61 -66 -19 -177 -60 -247 -90 -195 -83 -557 -215 -724 -263 -38 -12
-92 -35 -118 -53 -76 -50 -248 -225 -303 -308 -91 -136 -285 -552 -318 -680
-19 -75 -26 -88 -115 -240 -38 -63 -72 -128 -75 -143 l-7 -27 2841 0 2841 0 0
35 c0 19 -9 92 -20 162 -34 217 -178 1203 -190 1298 -6 50 -15 275 -20 500 -5
226 -16 480 -24 565 -20 212 -30 412 -22 438 16 48 29 38 364 -265 192 -173
325 -254 533 -322 201 -66 246 -105 220 -190 -6 -21 -135 -286 -286 -590 -151
-304 -275 -559 -275 -566 0 -13 21 -25 45 -25 20 0 98 136 232 404 63 127 119
234 124 237 14 8 67 -2 77 -15 9 -10 34 -105 46 -173 6 -34 -6 -54 -74 -128
-76 -82 -127 -207 -179 -440 -18 -77 -52 -212 -76 -300 -24 -88 -51 -200 -59
-250 -15 -86 -36 -290 -36 -347 l0 -28 189 0 188 0 36 28 c20 15 82 68 139
117 177 156 345 279 463 340 75 39 95 43 95 17 0 -53 -101 -160 -325 -344 -71
-58 -141 -118 -154 -132 l-24 -26 39 0 c45 0 57 7 174 106 104 87 221 171 284
204 l47 25 19 -25 c30 -38 60 -126 60 -174 0 -32 -8 -54 -30 -84 -16 -23 -30
-44 -30 -47 0 -3 36 -5 80 -5 78 0 80 1 80 24 0 35 -83 307 -142 466 -113 304
-227 538 -369 756 -49 75 -89 142 -89 149 0 6 15 59 34 117 36 110 77 201 97
214 17 10 34 -15 178 -256 124 -206 204 -323 249 -364 18 -15 24 -16 37 -6 31
26 15 60 -117 247 -202 286 -377 562 -569 898 -27 46 -46 66 -82 86 -66 36
-82 52 -64 67 7 6 79 27 160 46 185 45 260 74 433 170 253 139 429 286 642
536 152 177 230 262 256 277 28 16 88 16 110 0 16 -12 19 -40 27 -228 13 -298
12 -1002 -1 -1254 -6 -115 -20 -316 -31 -445 -48 -573 -99 -835 -263 -1370
-20 -63 -32 -118 -28 -122 11 -11 4888 -6 4898 4 14 15 -101 356 -231 683
-157 395 -209 471 -385 567 -41 23 -147 87 -235 143 -213 135 -229 144 -380
208 -71 31 -265 117 -430 192 -674 307 -835 376 -1218 521 -139 52 -277 109
-307 126 -120 67 -346 256 -580 483 -437 425 -593 566 -747 674 -71 50 -74 57
-43 146 30 86 76 264 105 405 14 69 30 137 36 152 7 16 38 44 77 70 153 99
173 136 253 448 23 90 52 168 104 280 104 220 135 356 135 592 0 140 -16 270
-51 428 -26 114 -32 120 -179 199 l-105 56 1 175 c1 96 6 254 11 350 11 196 2
439 -21 550 -24 112 -72 198 -319 568 -287 430 -330 477 -542 599 -77 44 -185
106 -240 138 -166 97 -254 118 -565 135 -107 5 -269 20 -360 31 -190 25 -322
32 -365 19z"/>
</g>
</svg>
